<svg width="100" height="23" viewBox="0 0 100 23" fill="none" xmlns="http://www.w3.org/2000/svg">
<rect y="3" width="100" height="20" rx="10" fill="#A75E08"/>
<rect width="100" height="20" rx="10" fill="#FF8E09"/>
<path d="M29.996 15V6.6H33.632C34.384 6.6 35.032 6.724 35.576 6.972C36.12 7.212 36.54 7.56 36.836 8.016C37.132 8.472 37.28 9.016 37.28 9.648C37.28 10.272 37.132 10.812 36.836 11.268C36.54 11.724 36.12 12.076 35.576 12.324C35.032 12.564 34.384 12.684 33.632 12.684H31.076L31.94 11.808V15H29.996ZM31.94 12.024L31.076 11.1H33.524C34.124 11.1 34.572 10.972 34.868 10.716C35.164 10.46 35.312 10.104 35.312 9.648C35.312 9.184 35.164 8.824 34.868 8.568C34.572 8.312 34.124 8.184 33.524 8.184H31.076L31.94 7.26V12.024ZM40.4559 9.984H44.4999V11.496H40.4559V9.984ZM40.5999 13.44H45.1719V15H38.6679V6.6H45.0159V8.16H40.5999V13.44ZM50.7747 15.144C50.1107 15.144 49.4987 15.04 48.9387 14.832C48.3867 14.616 47.9027 14.312 47.4867 13.92C47.0787 13.528 46.7587 13.068 46.5267 12.54C46.3027 12.012 46.1907 11.432 46.1907 10.8C46.1907 10.168 46.3027 9.588 46.5267 9.06C46.7587 8.532 47.0827 8.072 47.4987 7.68C47.9147 7.288 48.4027 6.988 48.9627 6.78C49.5227 6.564 50.1387 6.456 50.8107 6.456C51.5547 6.456 52.2227 6.58 52.8147 6.828C53.4147 7.076 53.9187 7.436 54.3267 7.908L53.0787 9.06C52.7747 8.74 52.4427 8.504 52.0827 8.352C51.7227 8.192 51.3307 8.112 50.9067 8.112C50.4987 8.112 50.1267 8.176 49.7907 8.304C49.4547 8.432 49.1627 8.616 48.9147 8.856C48.6747 9.096 48.4867 9.38 48.3507 9.708C48.2227 10.036 48.1587 10.4 48.1587 10.8C48.1587 11.192 48.2227 11.552 48.3507 11.88C48.4867 12.208 48.6747 12.496 48.9147 12.744C49.1627 12.984 49.4507 13.168 49.7787 13.296C50.1147 13.424 50.4827 13.488 50.8827 13.488C51.2667 13.488 51.6387 13.428 51.9987 13.308C52.3667 13.18 52.7227 12.968 53.0667 12.672L54.1707 14.076C53.7147 14.42 53.1827 14.684 52.5747 14.868C51.9747 15.052 51.3747 15.144 50.7747 15.144ZM52.3947 13.824V10.668H54.1707V14.076L52.3947 13.824ZM54.8725 15L58.6165 6.6H60.5365L64.2925 15H62.2525L59.1805 7.584H59.9485L56.8645 15H54.8725ZM56.7445 13.2L57.2605 11.724H61.5805L62.1085 13.2H56.7445ZM65.164 15V6.6H68.8C69.552 6.6 70.2 6.724 70.744 6.972C71.288 7.212 71.708 7.56 72.004 8.016C72.3 8.472 72.448 9.016 72.448 9.648C72.448 10.272 72.3 10.812 72.004 11.268C71.708 11.716 71.288 12.06 70.744 12.3C70.2 12.54 69.552 12.66 68.8 12.66H66.244L67.108 11.808V15H65.164ZM70.504 15L68.404 11.952H70.48L72.604 15H70.504ZM67.108 12.024L66.244 11.112H68.692C69.292 11.112 69.74 10.984 70.036 10.728C70.332 10.464 70.48 10.104 70.48 9.648C70.48 9.184 70.332 8.824 70.036 8.568C69.74 8.312 69.292 8.184 68.692 8.184H66.244L67.108 7.26V12.024Z" fill="white"/>
</svg>
